HIERARCHY
ROOT Hips
{
	OFFSET -0.001795 -0.223333 0.028219
	CHANNELS 6 Xposition Yposition Zposition Zrotation Yrotation Xrotation 
	JOINT LeftUpLeg
	{
		OFFSET 0.069520 -0.091406 -0.006815
		CHANNELS 3 Zrotation Yrotation Xrotation
		JOINT LeftLeg
		{
			OFFSET 0.034277 -0.375199 -0.004496
			CHANNELS 3 Zrotation Yrotation Xrotation
			JOINT LeftFoot
			{
				OFFSET -0.013596 -0.397961 -0.043693
				CHANNELS 3 Zrotation Yrotation Xrotation
				JOINT LeftToe
				{
					OFFSET 0.026358 -0.055791 0.119288
					CHANNELS 3 Zrotation Yrotation Xrotation
					End Site
					{
						OFFSET 0.000000 0.000000 0.000000
					}
				}
			}
		}
	}
	JOINT RightUpLeg
	{
		OFFSET -0.067670 -0.090522 -0.004320
		CHANNELS 3 Zrotation Yrotation Xrotation
		JOINT RightLeg
		{
			OFFSET -0.038290 -0.382569 -0.008850
			CHANNELS 3 Zrotation Yrotation Xrotation
			JOINT RightFoot
			{
				OFFSET 0.015774 -0.398415 -0.042312
				CHANNELS 3 Zrotation Yrotation Xrotation
				JOINT RightToe
				{
					OFFSET -0.025372 -0.048144 0.123348
					CHANNELS 3 Zrotation Yrotation Xrotation
					End Site
					{
						OFFSET 0.000000 0.000000 0.000000
					}
				}
			}
		}
	}
	JOINT Spine
	{
		OFFSET -0.002533 0.108963 -0.026696
		CHANNELS 3 Zrotation Yrotation Xrotation
		JOINT Spine1
		{
			OFFSET 0.005487 0.135180 0.001092
			CHANNELS 3 Zrotation Yrotation Xrotation
			JOINT Spine2
			{
				OFFSET 0.001457 0.052922 0.025425
				CHANNELS 3 Zrotation Yrotation Xrotation
				JOINT Neck
				{
					OFFSET -0.002778 0.213870 -0.042857
					CHANNELS 3 Zrotation Yrotation Xrotation
					JOINT Head
					{
						OFFSET 0.005152 0.064970 0.051349
						CHANNELS 3 Zrotation Yrotation Xrotation
						End Site
						{
							OFFSET 0.000000 0.000000 0.000000
						}
					}
				}
				JOINT LeftShoulder
				{
					OFFSET 0.078845 0.121749 -0.034090
					CHANNELS 3 Zrotation Yrotation Xrotation
					JOINT LeftArm
					{
						OFFSET 0.090977 0.030469 -0.008868
						CHANNELS 3 Zrotation Yrotation Xrotation
						JOINT LeftForeArm
						{
							OFFSET 0.259612 -0.012772 -0.027456
							CHANNELS 3 Zrotation Yrotation Xrotation
							JOINT LeftHand
							{
								OFFSET 0.249234 0.008986 -0.001171
								CHANNELS 3 Zrotation Yrotation Xrotation
								End Site
								{
									OFFSET 0.000000 0.000000 0.000000
								}
							}
						}
					}
				}
				JOINT RightShoulder
				{
					OFFSET -0.081759 0.118833 -0.038615
					CHANNELS 3 Zrotation Yrotation Xrotation
					JOINT RightArm
					{
						OFFSET -0.096012 0.032551 -0.009143
						CHANNELS 3 Zrotation Yrotation Xrotation
						JOINT RightForeArm
						{
							OFFSET -0.253742 -0.013329 -0.021401
							CHANNELS 3 Zrotation Yrotation Xrotation
							JOINT RightHand
							{
								OFFSET -0.255298 0.007772 -0.005559
								CHANNELS 3 Zrotation Yrotation Xrotation
								End Site
								{
									OFFSET 0.000000 0.000000 0.000000
								}
							}
						}
					}
				}
			}
		}
	}
}
MOTION
Frames: 13
Frame Time: 0.050000
0.000000 0.970928 0.000000 -0.506064 -2.232008 -0.510877 1.022284 0.120245 1.508436 0.632362 0.001499 -1.878272 -2.410215 1.643390 15.517613 0.000000 0.000000 0.000000 1.134799 -0.081283 0.481773 -1.995295 0.248566 0.752009 4.121282 0.387963 16.660401 0.000000 0.000000 0.000000 4.324264 -0.326321 3.822304 -2.861286 1.406974 2.269524 -2.516952 3.028583 -3.285873 6.322968 -3.404762 -8.587550 0.000000 0.000000 0.000000 -26.341257 -8.155512 1.084120 -46.205109 -2.294615 -3.634039 -13.341323 -23.814727 3.497188 0.000000 0.000000 0.000000 27.035571 1.465072 -1.114910 51.073027 1.130969 -3.970947 10.994904 22.566630 2.752534 0.000000 0.000000 0.000000 
-0.000071 0.970680 -0.000346 -0.801236 -2.768806 -0.044623 1.523842 0.094799 1.310384 0.659547 0.002820 -1.998437 -2.749483 0.806406 14.910892 0.000000 0.000000 0.000000 1.175921 -0.026340 -0.057564 -1.746861 0.241054 1.134543 4.591793 1.527947 15.822706 0.000000 0.000000 0.000000 4.467821 -0.280549 3.093742 -3.095094 1.546443 3.167610 -2.488749 3.598849 -3.926273 7.257866 -3.748974 -9.951349 0.000000 0.000000 0.000000 -26.280658 -8.614834 1.213849 -46.702930 -2.381462 -3.542391 -12.715762 -23.470965 3.292594 0.000000 0.000000 0.000000 26.331257 0.883258 -1.343205 52.286297 1.104755 -4.023480 11.273581 22.742281 2.837613 0.000000 0.000000 0.000000 
-0.000171 0.970840 -0.000967 -0.635208 -3.215419 -0.145635 1.314456 0.066042 0.892896 0.824247 -0.067335 -0.694960 -2.711921 0.491693 14.075370 0.000000 0.000000 0.000000 1.588219 -0.037110 -0.066726 -2.319642 0.312543 1.273528 3.961757 0.483964 15.417526 0.000000 0.000000 0.000000 4.534068 -0.290297 3.211626 -2.575157 1.261862 1.670168 -3.336741 4.202247 -2.669679 6.908221 -3.734388 -8.794468 0.000000 0.000000 0.000000 -25.794662 -8.543045 1.066924 -46.399190 -2.190272 -3.658635 -13.610252 -22.664809 3.344990 0.000000 0.000000 0.000000 27.374714 2.021782 -0.426599 51.389746 0.875495 -4.258922 10.584166 23.899513 2.904494 0.000000 0.000000 0.000000 
-0.000378 0.972104 -0.001710 -0.768791 -3.015660 0.244063 1.736955 0.014778 0.340408 0.558776 -0.035326 -0.764418 -3.158111 0.085773 14.830729 0.000000 0.000000 0.000000 1.839754 0.035842 -0.773817 -2.098067 0.314028 1.709840 3.406307 -0.614786 15.704120 0.000000 0.000000 0.000000 4.229595 -0.264850 2.945431 -2.398676 1.182289 2.610171 -2.845023 3.956734 -3.705443 6.991440 -3.785427 -8.697006 0.000000 0.000000 0.000000 -26.500398 -8.477504 1.007907 -46.814626 -2.256041 -3.579045 -12.349723 -22.043864 3.007641 0.000000 0.000000 0.000000 26.681009 2.375707 -0.296281 51.506172 0.749649 -4.174759 11.151843 24.038455 3.013366 0.000000 0.000000 0.000000 
-0.000596 0.972818 -0.002487 -0.863620 -3.081504 0.142289 1.570490 -0.017614 -0.093955 0.903350 -0.105552 0.036406 -2.871137 0.592104 14.994356 0.000000 0.000000 0.000000 2.058149 0.039963 -0.846079 -2.025322 0.328963 2.101491 3.073916 -1.130769 15.483983 0.000000 0.000000 0.000000 4.213206 -0.283603 3.213717 -2.278880 1.125896 2.928032 -3.044853 4.167316 -4.108119 6.748141 -3.714544 -8.053778 0.000000 0.000000 0.000000 -26.968949 -8.645672 0.967953 -46.723112 -2.178272 -3.530630 -12.066088 -21.705048 2.897022 0.000000 0.000000 0.000000 26.869773 2.513690 -0.142604 51.546785 0.751089 -4.166494 11.341020 24.570034 3.134030 0.000000 0.000000 0.000000 
-0.000755 0.973395 -0.002822 -0.958459 -3.180704 0.162115 1.590635 -0.037254 -0.343423 0.726359 -0.101087 0.443243 -2.294813 1.473947 14.947978 0.000000 0.000000 0.000000 2.231576 0.055532 -1.011308 -1.669246 0.305403 2.440220 2.444069 -2.181047 15.238749 0.000000 0.000000 0.000000 4.199172 -0.283094 3.210241 -2.210513 1.095788 3.263879 -2.900912 4.189042 -4.272481 6.653512 -3.676517 -7.898690 0.000000 0.000000 0.000000 -27.992433 -8.739518 0.967234 -46.365233 -2.124507 -3.489624 -11.029788 -21.370556 2.664462 0.000000 0.000000 0.000000 26.843357 3.027019 0.160313 51.803606 1.018175 -4.054790 10.478035 24.412042 2.931330 0.000000 0.000000 0.000000 
-0.000791 0.973191 -0.002870 -0.932212 -3.239885 0.206869 1.466975 -0.076116 -0.833458 0.843222 -0.139723 1.065617 -2.149718 1.752405 15.123573 0.000000 0.000000 0.000000 2.341392 0.082733 -1.260689 -1.591536 0.318567 2.838927 1.961763 -2.933255 14.914633 0.000000 0.000000 0.000000 4.164685 -0.296585 3.395762 -2.529197 1.261737 3.288394 -2.776138 4.103741 -3.979014 6.764325 -3.750796 -7.982933 0.000000 0.000000 0.000000 -27.957230 -8.556993 0.930413 -46.759705 -2.560046 -3.408897 -10.326104 -21.652145 2.573984 0.000000 0.000000 0.000000 26.607234 2.889027 0.036032 52.179459 0.842814 -4.165585 10.424177 24.791899 2.969389 0.000000 0.000000 0.000000 
-0.000672 0.972519 -0.002606 -0.995012 -2.869097 0.729650 1.592546 -0.161692 -1.892609 0.748088 -0.152641 1.718778 -2.206524 1.727571 15.153796 0.000000 0.000000 0.000000 2.363031 0.187595 -2.148651 -1.442545 0.347136 3.689513 1.667633 -3.152191 14.280314 0.000000 0.000000 0.000000 4.107969 -0.321132 3.648345 -2.627948 1.298378 2.809891 -2.535996 4.138756 -3.486807 6.377101 -3.587122 -7.462193 0.000000 0.000000 0.000000 -28.285801 -8.558319 0.889916 -46.779588 -2.734192 -3.369827 -10.271639 -22.029230 2.610068 0.000000 0.000000 0.000000 26.576381 2.642988 -0.050543 52.179060 0.600996 -4.323244 10.892410 25.492894 3.179321 0.000000 0.000000 0.000000 
-0.000498 0.971833 -0.002283 -0.992699 -2.693078 1.159021 1.640905 -0.239653 -2.884000 0.709401 -0.173990 2.415795 -2.298678 1.679820 15.364520 0.000000 0.000000 0.000000 2.279419 0.293006 -3.033469 -1.361385 0.386583 4.600039 1.594580 -3.073023 13.814280 0.000000 0.000000 0.000000 3.991953 -0.339650 3.882181 -2.684674 1.320560 2.656825 -2.372428 4.037748 -3.076077 6.032687 -3.300194 -7.849303 0.000000 0.000000 0.000000 -28.136992 -8.563145 0.960238 -47.132711 -3.490209 -3.164976 -9.754395 -22.277710 2.546753 0.000000 0.000000 0.000000 26.166972 2.813107 0.066716 52.379508 0.153944 -4.554744 10.860967 26.234913 3.281927 0.000000 0.000000 0.000000 
-0.000422 0.971453 -0.001971 -1.165566 -2.534691 1.799772 1.952548 -0.332185 -4.168188 0.407701 -0.171098 3.502515 -2.115761 1.858495 14.986099 0.000000 0.000000 0.000000 2.561435 0.429325 -4.169337 -1.491164 0.464981 5.653677 1.421405 -3.157482 13.277430 0.000000 0.000000 0.000000 4.050298 -0.372055 4.161903 -2.936657 1.435999 2.145670 -2.204921 3.944721 -2.621625 5.565993 -3.048434 -7.527295 0.000000 0.000000 0.000000 -27.953980 -8.921927 1.256744 -47.536738 -3.751058 -3.146889 -8.887689 -22.495815 2.410567 0.000000 0.000000 0.000000 26.168529 2.865828 0.098820 52.406879 0.025515 -4.647389 10.923594 26.962939 3.406159 0.000000 0.000000 0.000000 
-0.000169 0.971247 -0.001667 -1.316788 -2.322388 2.567490 2.140353 -0.464893 -6.046964 0.295435 -0.216869 5.345311 -1.981565 1.992446 14.675534 0.000000 0.000000 0.000000 2.719331 0.634735 -5.828548 -1.450473 0.542644 7.131606 1.214633 -3.514427 13.289425 0.000000 0.000000 0.000000 4.123541 -0.415925 4.550581 -3.185319 1.544800 1.586324 -1.974324 3.986713 -2.026834 5.919534 -3.171733 -8.292657 0.000000 0.000000 0.000000 -27.366237 -9.406283 1.613228 -47.542672 -4.234428 -3.016276 -8.670449 -23.078081 2.436195 0.000000 0.000000 0.000000 26.026423 2.936101 0.201213 52.087941 0.053040 -4.665394 11.601778 27.653514 3.679838 0.000000 0.000000 0.000000 
0.000255 0.969561 -0.000982 -1.175557 -2.544683 2.925699 1.831427 -0.636700 -8.237601 0.232824 -0.320292 9.027687 -1.274742 2.586235 13.164738 0.000000 0.000000 0.000000 2.863049 0.953558 -8.326210 -1.780955 0.811424 10.539418 0.728046 -4.489427 13.367488 0.000000 0.000000 0.000000 3.823667 -0.542694 6.468305 -3.307030 1.589448 0.783654 -1.705098 3.743140 -1.478286 5.558432 -2.865296 -8.901242 0.000000 0.000000 0.000000 -26.240347 -9.547590 1.963425 -47.356978 -4.430113 -3.044691 -8.989732 -24.368343 2.668196 0.000000 0.000000 0.000000 25.283285 3.445611 0.416694 51.504451 0.407688 -4.465964 12.252770 29.541542 4.114925 0.000000 0.000000 0.000000 
0.001131 0.966507 0.000225 -1.073672 -2.370762 3.256956 1.589194 -0.823134 -10.546628 -0.145049 -0.344665 12.627360 -0.318317 3.835375 12.084938 0.000000 0.000000 0.000000 2.601256 1.289917 -11.070840 -1.697583 1.096353 15.265403 0.616912 -4.176470 12.040971 0.000000 0.000000 0.000000 3.552150 -0.677562 8.629999 -3.064165 1.454449 -0.178815 -1.933422 3.464819 -0.717897 5.183523 -2.473467 -9.980768 0.000000 0.000000 0.000000 -24.559426 -10.017816 2.415699 -47.240832 -5.051861 -2.904830 -9.104822 -25.188225 2.799335 0.000000 0.000000 0.000000 24.298195 4.341233 0.985722 51.470018 0.923252 -4.294142 12.633959 31.411617 4.523353 0.000000 0.000000 0.000000 
